<svg id="visual" preserveAspectRatio="none" viewBox="0 0 900 600" width="900" height="600" xmlns="http://www.w3.org/2000/svg" xmlns:xlink="http://www.w3.org/1999/xlink" version="1.1"><rect x="0" y="0" width="900" height="600" fill="#151515"></rect><path d="M0 203L16.7 193.2C33.3 183.3 66.7 163.7 100 157.3C133.3 151 166.7 158 200 167C233.3 176 266.7 187 300 182.8C333.3 178.7 366.7 159.3 400 158.5C433.3 157.7 466.7 175.3 500 192.3C533.3 209.3 566.7 225.7 600 222.5C633.3 219.3 666.7 196.7 700 188.7C733.3 180.7 766.7 187.3 800 193.3C833.3 199.3 866.7 204.7 883.3 207.3L900 210L900 601L883.3 601C866.7 601 833.3 601 800 601C766.7 601 733.3 601 700 601C666.7 601 633.3 601 600 601C566.7 601 533.3 601 500 601C466.7 601 433.3 601 400 601C366.7 601 333.3 601 300 601C266.7 601 233.3 601 200 601C166.7 601 133.3 601 100 601C66.7 601 33.3 601 16.7 601L0 601Z" fill="#12e0cc"></path><path d="M0 230L16.7 229.5C33.3 229 66.7 228 100 228.3C133.3 228.7 166.7 230.3 200 242.2C233.3 254 266.7 276 300 291.7C333.3 307.3 366.7 316.7 400 319.8C433.3 323 466.7 320 500 312.2C533.3 304.3 566.7 291.7 600 285.8C633.3 280 666.7 281 700 287.7C733.3 294.3 766.7 306.7 800 298.7C833.3 290.7 866.7 262.3 883.3 248.2L900 234L900 601L883.3 601C866.7 601 833.3 601 800 601C766.7 601 733.3 601 700 601C666.7 601 633.3 601 600 601C566.7 601 533.3 601 500 601C466.7 601 433.3 601 400 601C366.7 601 333.3 601 300 601C266.7 601 233.3 601 200 601C166.7 601 133.3 601 100 601C66.7 601 33.3 601 16.7 601L0 601Z" fill="#13bdae"></path><path d="M0 313L16.7 321C33.3 329 66.7 345 100 352.5C133.3 360 166.7 359 200 363.3C233.3 367.7 266.7 377.3 300 382.7C333.3 388 366.7 389 400 377C433.3 365 466.7 340 500 328.2C533.3 316.3 566.7 317.7 600 327.3C633.3 337 666.7 355 700 359.7C733.3 364.3 766.7 355.7 800 356C833.3 356.3 866.7 365.7 883.3 370.3L900 375L900 601L883.3 601C866.7 601 833.3 601 800 601C766.7 601 733.3 601 700 601C666.7 601 633.3 601 600 601C566.7 601 533.3 601 500 601C466.7 601 433.3 601 400 601C366.7 601 333.3 601 300 601C266.7 601 233.3 601 200 601C166.7 601 133.3 601 100 601C66.7 601 33.3 601 16.7 601L0 601Z" fill="#149c90"></path><path d="M0 424L16.7 421.2C33.3 418.3 66.7 412.7 100 407.3C133.3 402 166.7 397 200 399.8C233.3 402.7 266.7 413.3 300 424.2C333.3 435 366.7 446 400 448.7C433.3 451.3 466.7 445.7 500 442.3C533.3 439 566.7 438 600 430.7C633.3 423.3 666.7 409.7 700 410.5C733.3 411.3 766.7 426.7 800 437.3C833.3 448 866.7 454 883.3 457L900 460L900 601L883.3 601C866.7 601 833.3 601 800 601C766.7 601 733.3 601 700 601C666.7 601 633.3 601 600 601C566.7 601 533.3 601 500 601C466.7 601 433.3 601 400 601C366.7 601 333.3 601 300 601C266.7 601 233.3 601 200 601C166.7 601 133.3 601 100 601C66.7 601 33.3 601 16.7 601L0 601Z" fill="#147c73"></path><path d="M0 490L16.7 495.8C33.3 501.7 66.7 513.3 100 517.2C133.3 521 166.7 517 200 509.2C233.3 501.3 266.7 489.7 300 483.3C333.3 477 366.7 476 400 475.3C433.3 474.7 466.7 474.3 500 474.5C533.3 474.7 566.7 475.3 600 478.5C633.3 481.7 666.7 487.3 700 491.5C733.3 495.7 766.7 498.3 800 500.7C833.3 503 866.7 505 883.3 506L900 507L900 601L883.3 601C866.7 601 833.3 601 800 601C766.7 601 733.3 601 700 601C666.7 601 633.3 601 600 601C566.7 601 533.3 601 500 601C466.7 601 433.3 601 400 601C366.7 601 333.3 601 300 601C266.7 601 233.3 601 200 601C166.7 601 133.3 601 100 601C66.7 601 33.3 601 16.7 601L0 601Z" fill="#125e57"></path></svg>