<svg id="visual" preserveAspectRatio="none" viewBox="0 0 1200 500" width="1200" height="500" xmlns="http://www.w3.org/2000/svg" xmlns:xlink="http://www.w3.org/1999/xlink" version="1.1"><rect x="0" y="0" width="1200" height="500" fill="#001220"></rect><path d="M0 334L25 335.3C50 336.7 100 339.3 150 345.7C200 352 250 362 300 365.7C350 369.3 400 366.7 450 363.5C500 360.3 550 356.7 600 359.2C650 361.7 700 370.3 750 373.5C800 376.7 850 374.3 900 368.2C950 362 1000 352 1050 350C1100 348 1150 354 1175 357L1200 360L1200 501L1175 501C1150 501 1100 501 1050 501C1000 501 950 501 900 501C850 501 800 501 750 501C700 501 650 501 600 501C550 501 500 501 450 501C400 501 350 501 300 501C250 501 200 501 150 501C100 501 50 501 25 501L0 501Z" fill="#12e0cc"></path><path d="M0 374L25 378.2C50 382.3 100 390.7 150 393.3C200 396 250 393 300 394.3C350 395.7 400 401.3 450 399.7C500 398 550 389 600 385C650 381 700 382 750 384.3C800 386.7 850 390.3 900 391.2C950 392 1000 390 1050 387.3C1100 384.7 1150 381.3 1175 379.7L1200 378L1200 501L1175 501C1150 501 1100 501 1050 501C1000 501 950 501 900 501C850 501 800 501 750 501C700 501 650 501 600 501C550 501 500 501 450 501C400 501 350 501 300 501C250 501 200 501 150 501C100 501 50 501 25 501L0 501Z" fill="#13b2a4"></path><path d="M0 439L25 437.8C50 436.7 100 434.3 150 431.7C200 429 250 426 300 427.3C350 428.7 400 434.3 450 436.8C500 439.3 550 438.7 600 434.3C650 430 700 422 750 421.8C800 421.7 850 429.3 900 431C950 432.7 1000 428.3 1050 424C1100 419.7 1150 415.3 1175 413.2L1200 411L1200 501L1175 501C1150 501 1100 501 1050 501C1000 501 950 501 900 501C850 501 800 501 750 501C700 501 650 501 600 501C550 501 500 501 450 501C400 501 350 501 300 501C250 501 200 501 150 501C100 501 50 501 25 501L0 501Z" fill="#14877c"></path><path d="M0 472L25 470.2C50 468.3 100 464.7 150 462.5C200 460.3 250 459.7 300 460.3C350 461 400 463 450 464C500 465 550 465 600 466.3C650 467.7 700 470.3 750 467.2C800 464 850 455 900 450C950 445 1000 444 1050 445.3C1100 446.7 1150 450.3 1175 452.2L1200 454L1200 501L1175 501C1150 501 1100 501 1050 501C1000 501 950 501 900 501C850 501 800 501 750 501C700 501 650 501 600 501C550 501 500 501 450 501C400 501 350 501 300 501C250 501 200 501 150 501C100 501 50 501 25 501L0 501Z" fill="#125e57"></path></svg>