<svg id="visual" preserveAspectRatio="none" viewBox="0 0 900 450" width="900" height="450" xmlns="http://www.w3.org/2000/svg" xmlns:xlink="http://www.w3.org/1999/xlink" version="1.1"><rect x="0" y="0" width="900" height="450" fill="#125e57"></rect><path d="M0 107L18.8 113.7C37.7 120.3 75.3 133.7 112.8 149.7C150.3 165.7 187.7 184.3 225.2 173.8C262.7 163.3 300.3 123.7 337.8 106.3C375.3 89 412.7 94 450.2 103.7C487.7 113.3 525.3 127.7 562.8 147.8C600.3 168 637.7 194 675.2 192.5C712.7 191 750.3 162 787.8 152.8C825.3 143.7 862.7 154.3 881.3 159.7L900 165L900 451L881.3 451C862.7 451 825.3 451 787.8 451C750.3 451 712.7 451 675.2 451C637.7 451 600.3 451 562.8 451C525.3 451 487.7 451 450.2 451C412.7 451 375.3 451 337.8 451C300.3 451 262.7 451 225.2 451C187.7 451 150.3 451 112.8 451C75.3 451 37.7 451 18.8 451L0 451Z" fill="#0e3733"></path><path d="M0 194L18.8 198.7C37.7 203.3 75.3 212.7 112.8 217.3C150.3 222 187.7 222 225.2 217.8C262.7 213.7 300.3 205.3 337.8 194.7C375.3 184 412.7 171 450.2 183C487.7 195 525.3 232 562.8 247.7C600.3 263.3 637.7 257.7 675.2 250.2C712.7 242.7 750.3 233.3 787.8 230.2C825.3 227 862.7 230 881.3 231.5L900 233L900 451L881.3 451C862.7 451 825.3 451 787.8 451C750.3 451 712.7 451 675.2 451C637.7 451 600.3 451 562.8 451C525.3 451 487.7 451 450.2 451C412.7 451 375.3 451 337.8 451C300.3 451 262.7 451 225.2 451C187.7 451 150.3 451 112.8 451C75.3 451 37.7 451 18.8 451L0 451Z" fill="#132e2b"></path><path d="M0 264L18.8 264.8C37.7 265.7 75.3 267.3 112.8 274C150.3 280.7 187.7 292.3 225.2 284C262.7 275.7 300.3 247.3 337.8 245C375.3 242.7 412.7 266.3 450.2 282C487.7 297.7 525.3 305.3 562.8 308C600.3 310.7 637.7 308.3 675.2 296.3C712.7 284.3 750.3 262.7 787.8 249C825.3 235.3 862.7 229.7 881.3 226.8L900 224L900 451L881.3 451C862.7 451 825.3 451 787.8 451C750.3 451 712.7 451 675.2 451C637.7 451 600.3 451 562.8 451C525.3 451 487.7 451 450.2 451C412.7 451 375.3 451 337.8 451C300.3 451 262.7 451 225.2 451C187.7 451 150.3 451 112.8 451C75.3 451 37.7 451 18.8 451L0 451Z" fill="#152624"></path><path d="M0 280L18.8 294C37.7 308 75.3 336 112.8 349C150.3 362 187.7 360 225.2 348.8C262.7 337.7 300.3 317.3 337.8 310.7C375.3 304 412.7 311 450.2 309.5C487.7 308 525.3 298 562.8 290.3C600.3 282.7 637.7 277.3 675.2 284.2C712.7 291 750.3 310 787.8 314.2C825.3 318.3 862.7 307.7 881.3 302.3L900 297L900 451L881.3 451C862.7 451 825.3 451 787.8 451C750.3 451 712.7 451 675.2 451C637.7 451 600.3 451 562.8 451C525.3 451 487.7 451 450.2 451C412.7 451 375.3 451 337.8 451C300.3 451 262.7 451 225.2 451C187.7 451 150.3 451 112.8 451C75.3 451 37.7 451 18.8 451L0 451Z" fill="#161d1c"></path><path d="M0 337L18.8 344.5C37.7 352 75.3 367 112.8 375.2C150.3 383.3 187.7 384.7 225.2 386.7C262.7 388.7 300.3 391.3 337.8 383.7C375.3 376 412.7 358 450.2 355C487.7 352 525.3 364 562.8 374.3C600.3 384.7 637.7 393.3 675.2 395.3C712.7 397.3 750.3 392.7 787.8 388.5C825.3 384.3 862.7 380.7 881.3 378.8L900 377L900 451L881.3 451C862.7 451 825.3 451 787.8 451C750.3 451 712.7 451 675.2 451C637.7 451 600.3 451 562.8 451C525.3 451 487.7 451 450.2 451C412.7 451 375.3 451 337.8 451C300.3 451 262.7 451 225.2 451C187.7 451 150.3 451 112.8 451C75.3 451 37.7 451 18.8 451L0 451Z" fill="#151515"></path></svg>